<?xml version="1.0" encoding="us-ascii" standalone="no"?><svg xmlns="http://www.w3.org/2000/svg" xmlns:xlink="http://www.w3.org/1999/xlink" contentStyleType="text/css" height="806px" preserveAspectRatio="none" style="width:1884px;height:806px;background:#FFFFFF;" version="1.1" viewBox="0 0 1884 806" width="1884px" zoomAndPan="magnify"><defs/><g><!--class De--><g id="elem_De"><rect codeLine="1" fill="#F1F1F1" height="100.8281" id="De" rx="2.5" ry="2.5" style="stroke:#181818;stroke-width:0.5;" width="129" x="339.5" y="636.5"/><ellipse cx="390.75" cy="652.5" fill="#ADD1B2" rx="11" ry="11" style="stroke:#181818;stroke-width:1.0;"/><path d="M393.5156,648.375 Q393.6719,648.1563 393.8594,648.0469 Q394.0469,647.9375 394.2656,647.9375 Q394.6406,647.9375 394.875,648.2031 Q395.1094,648.4531 395.1094,649.0625 L395.1094,650.5156 Q395.1094,651.125 394.875,651.3906 Q394.6406,651.6563 394.2656,651.6563 Q393.9219,651.6563 393.7188,651.4531 Q393.5156,651.2656 393.4063,650.75 Q393.3594,650.3906 393.1719,650.2031 Q392.8438,649.8281 392.2344,649.6094 Q391.625,649.3906 391,649.3906 Q390.2344,649.3906 389.5938,649.7188 Q388.9688,650.0469 388.4688,650.7969 Q387.9844,651.5469 387.9844,652.5781 L387.9844,653.6719 Q387.9844,654.9063 388.875,655.7344 Q389.7656,656.5469 391.3594,656.5469 Q392.2969,656.5469 392.9531,656.2969 Q393.3438,656.1406 393.7656,655.7031 Q394.0313,655.4375 394.1719,655.3594 Q394.3281,655.2813 394.5313,655.2813 Q394.8594,655.2813 395.1094,655.5469 Q395.375,655.7969 395.375,656.1406 Q395.375,656.4844 395.0313,656.8906 Q394.5313,657.4688 393.7344,657.7969 Q392.6563,658.25 391.3594,658.25 Q389.8438,658.25 388.6406,657.625 Q387.6563,657.125 386.9688,656.0625 Q386.2813,654.9844 386.2813,653.7031 L386.2813,652.5469 Q386.2813,651.2188 386.8906,650.0781 Q387.5156,648.9219 388.6094,648.3125 Q389.7031,647.6875 390.9375,647.6875 Q391.6719,647.6875 392.3125,647.8594 Q392.9688,648.0156 393.5156,648.375 Z " fill="#000000"/><text fill="#000000" font-family="sans-serif" font-size="14" lengthAdjust="spacing" textLength="18" x="411.25" y="658.2285">De</text><line style="stroke:#181818;stroke-width:0.5;" x1="340.5" x2="467.5" y1="668.5" y2="668.5"/><rect fill="none" height="6" style="stroke:#C82930;stroke-width:1.0;" width="6" x="347.5" y="679.8047"/><text fill="#000000" font-family="sans-serif" font-size="14" lengthAdjust="spacing" textLength="103" x="359.5" y="687.0332">_valeur: number</text><ellipse cx="350.5" cy="700.4141" fill="none" rx="3" ry="3" style="stroke:#038048;stroke-width:1.0;"/><text fill="#000000" font-family="sans-serif" font-size="14" lengthAdjust="spacing" textLength="95" x="359.5" y="704.6426">valeur: number</text><line style="stroke:#181818;stroke-width:0.5;" x1="340.5" x2="467.5" y1="711.7188" y2="711.7188"/><ellipse cx="350.5" cy="726.0234" fill="#84BE84" rx="3" ry="3" style="stroke:#038048;stroke-width:1.0;"/><text fill="#000000" font-family="sans-serif" font-size="14" lengthAdjust="spacing" textLength="92" x="359.5" y="730.252">brasser(): void</text></g><!--class default--><g id="elem_default"><rect codeLine="6" fill="#F1F1F1" height="65.6094" id="default" rx="2.5" ry="2.5" style="stroke:#181818;stroke-width:0.5;" width="113" x="1137.5" y="370"/><ellipse cx="1169.6" cy="386" fill="#A9DCDF" rx="11" ry="11" style="stroke:#181818;stroke-width:1.0;"/><path d="M1171.7875,387.7656 L1167.6469,387.7656 L1167.225,388.7969 L1167.6469,388.7969 Q1168.2563,388.7969 1168.5219,389.0313 Q1168.7875,389.2656 1168.7875,389.6563 Q1168.7875,390.0313 1168.5219,390.2656 Q1168.2563,390.5 1167.6469,390.5 L1165.35,390.5 Q1164.7406,390.5 1164.4906,390.2656 Q1164.225,390.0313 1164.225,389.6406 Q1164.225,389.2656 1164.5063,389.0313 Q1164.7719,388.7813 1165.3969,388.7969 L1168.0688,382.1406 L1166.9594,382.1406 Q1166.35,382.1406 1166.0844,381.9063 Q1165.8188,381.6719 1165.8188,381.2813 Q1165.8188,380.9063 1166.0844,380.6719 Q1166.35,380.4375 1166.9594,380.4375 L1170.6313,380.4375 L1174.0219,388.7969 Q1174.6156,388.7969 1174.8031,388.9375 Q1175.1938,389.2031 1175.1938,389.6563 Q1175.1938,390.0313 1174.9281,390.2656 Q1174.6781,390.5 1174.0688,390.5 L1171.7719,390.5 Q1171.1625,390.5 1170.8969,390.2656 Q1170.6313,390.0313 1170.6313,389.6406 Q1170.6313,389.2656 1170.8969,389.0313 Q1171.1625,388.7969 1171.7719,388.7969 L1172.1938,388.7969 L1171.7875,387.7656 Z M1171.0688,386.0625 L1169.7094,382.6875 L1168.3344,386.0625 L1171.0688,386.0625 Z " fill="#000000"/><text fill="#000000" font-family="sans-serif" font-size="14" font-style="italic" lengthAdjust="spacing" textLength="43" x="1187.4" y="391.7285">default</text><line style="stroke:#181818;stroke-width:0.5;" x1="1138.5" x2="1249.5" y1="402" y2="402"/><ellipse cx="1148.5" cy="416.3047" fill="none" rx="3" ry="3" style="stroke:#038048;stroke-width:1.0;"/><text fill="#000000" font-family="sans-serif" font-size="14" font-style="italic" lengthAdjust="spacing" textLength="87" x="1157.5" y="420.5332">code: number</text><line style="stroke:#181818;stroke-width:0.5;" x1="1138.5" x2="1249.5" y1="427.6094" y2="427.6094"/></g><!--class Error--><g id="elem_Error"><rect fill="#F1F1F1" height="48" id="Error" rx="2.5" ry="2.5" style="stroke:#181818;stroke-width:0.5;" width="64" x="1162" y="95"/><ellipse cx="1177" cy="111" fill="#ADD1B2" rx="11" ry="11" style="stroke:#181818;stroke-width:1.0;"/><path d="M1179.7656,106.875 Q1179.9219,106.6563 1180.1094,106.5469 Q1180.2969,106.4375 1180.5156,106.4375 Q1180.8906,106.4375 1181.125,106.7031 Q1181.3594,106.9531 1181.3594,107.5625 L1181.3594,109.0156 Q1181.3594,109.625 1181.125,109.8906 Q1180.8906,110.1563 1180.5156,110.1563 Q1180.1719,110.1563 1179.9688,109.9531 Q1179.7656,109.7656 1179.6563,109.25 Q1179.6094,108.8906 1179.4219,108.7031 Q1179.0938,108.3281 1178.4844,108.1094 Q1177.875,107.8906 1177.25,107.8906 Q1176.4844,107.8906 1175.8438,108.2188 Q1175.2188,108.5469 1174.7188,109.2969 Q1174.2344,110.0469 1174.2344,111.0781 L1174.2344,112.1719 Q1174.2344,113.4063 1175.125,114.2344 Q1176.0156,115.0469 1177.6094,115.0469 Q1178.5469,115.0469 1179.2031,114.7969 Q1179.5938,114.6406 1180.0156,114.2031 Q1180.2813,113.9375 1180.4219,113.8594 Q1180.5781,113.7813 1180.7813,113.7813 Q1181.1094,113.7813 1181.3594,114.0469 Q1181.625,114.2969 1181.625,114.6406 Q1181.625,114.9844 1181.2813,115.3906 Q1180.7813,115.9688 1179.9844,116.2969 Q1178.9063,116.75 1177.6094,116.75 Q1176.0938,116.75 1174.8906,116.125 Q1173.9063,115.625 1173.2188,114.5625 Q1172.5313,113.4844 1172.5313,112.2031 L1172.5313,111.0469 Q1172.5313,109.7188 1173.1406,108.5781 Q1173.7656,107.4219 1174.8594,106.8125 Q1175.9531,106.1875 1177.1875,106.1875 Q1177.9219,106.1875 1178.5625,106.3594 Q1179.2188,106.5156 1179.7656,106.875 Z " fill="#000000"/><text fill="#000000" font-family="sans-serif" font-size="14" lengthAdjust="spacing" textLength="32" x="1191" y="116.7285">Error</text><line style="stroke:#181818;stroke-width:0.5;" x1="1163" x2="1225" y1="127" y2="127"/><line style="stroke:#181818;stroke-width:0.5;" x1="1163" x2="1225" y1="135" y2="135"/></g><!--class InvalidParameterError--><g id="elem_InvalidParameterError"><rect codeLine="9" fill="#F1F1F1" height="65.6094" id="InvalidParameterError" rx="2.5" ry="2.5" style="stroke:#181818;stroke-width:0.5;" width="170" x="1286" y="370"/><ellipse cx="1301" cy="386" fill="#ADD1B2" rx="11" ry="11" style="stroke:#181818;stroke-width:1.0;"/><path d="M1303.7656,381.875 Q1303.9219,381.6563 1304.1094,381.5469 Q1304.2969,381.4375 1304.5156,381.4375 Q1304.8906,381.4375 1305.125,381.7031 Q1305.3594,381.9531 1305.3594,382.5625 L1305.3594,384.0156 Q1305.3594,384.625 1305.125,384.8906 Q1304.8906,385.1563 1304.5156,385.1563 Q1304.1719,385.1563 1303.9688,384.9531 Q1303.7656,384.7656 1303.6563,384.25 Q1303.6094,383.8906 1303.4219,383.7031 Q1303.0938,383.3281 1302.4844,383.1094 Q1301.875,382.8906 1301.25,382.8906 Q1300.4844,382.8906 1299.8438,383.2188 Q1299.2188,383.5469 1298.7188,384.2969 Q1298.2344,385.0469 1298.2344,386.0781 L1298.2344,387.1719 Q1298.2344,388.4063 1299.125,389.2344 Q1300.0156,390.0469 1301.6094,390.0469 Q1302.5469,390.0469 1303.2031,389.7969 Q1303.5938,389.6406 1304.0156,389.2031 Q1304.2813,388.9375 1304.4219,388.8594 Q1304.5781,388.7813 1304.7813,388.7813 Q1305.1094,388.7813 1305.3594,389.0469 Q1305.625,389.2969 1305.625,389.6406 Q1305.625,389.9844 1305.2813,390.3906 Q1304.7813,390.9688 1303.9844,391.2969 Q1302.9063,391.75 1301.6094,391.75 Q1300.0938,391.75 1298.8906,391.125 Q1297.9063,390.625 1297.2188,389.5625 Q1296.5313,388.4844 1296.5313,387.2031 L1296.5313,386.0469 Q1296.5313,384.7188 1297.1406,383.5781 Q1297.7656,382.4219 1298.8594,381.8125 Q1299.9531,381.1875 1301.1875,381.1875 Q1301.9219,381.1875 1302.5625,381.3594 Q1303.2188,381.5156 1303.7656,381.875 Z " fill="#000000"/><text fill="#000000" font-family="sans-serif" font-size="14" lengthAdjust="spacing" textLength="138" x="1315" y="391.7285">InvalidParameterError</text><line style="stroke:#181818;stroke-width:0.5;" x1="1287" x2="1455" y1="402" y2="402"/><ellipse cx="1297" cy="416.3047" fill="none" rx="3" ry="3" style="stroke:#038048;stroke-width:1.0;"/><text fill="#000000" font-family="sans-serif" font-size="14" lengthAdjust="spacing" textLength="63" x="1306" y="420.5332">code: 400</text><line style="stroke:#181818;stroke-width:0.5;" x1="1287" x2="1455" y1="427.6094" y2="427.6094"/></g><!--class AbstractError--><g id="elem_AbstractError"><rect fill="#F1F1F1" height="48" id="AbstractError" rx="2.5" ry="2.5" style="stroke:#181818;stroke-width:0.5;" width="116" x="1496" y="95"/><ellipse cx="1511" cy="111" fill="#ADD1B2" rx="11" ry="11" style="stroke:#181818;stroke-width:1.0;"/><path d="M1513.7656,106.875 Q1513.9219,106.6563 1514.1094,106.5469 Q1514.2969,106.4375 1514.5156,106.4375 Q1514.8906,106.4375 1515.125,106.7031 Q1515.3594,106.9531 1515.3594,107.5625 L1515.3594,109.0156 Q1515.3594,109.625 1515.125,109.8906 Q1514.8906,110.1563 1514.5156,110.1563 Q1514.1719,110.1563 1513.9688,109.9531 Q1513.7656,109.7656 1513.6563,109.25 Q1513.6094,108.8906 1513.4219,108.7031 Q1513.0938,108.3281 1512.4844,108.1094 Q1511.875,107.8906 1511.25,107.8906 Q1510.4844,107.8906 1509.8438,108.2188 Q1509.2188,108.5469 1508.7188,109.2969 Q1508.2344,110.0469 1508.2344,111.0781 L1508.2344,112.1719 Q1508.2344,113.4063 1509.125,114.2344 Q1510.0156,115.0469 1511.6094,115.0469 Q1512.5469,115.0469 1513.2031,114.7969 Q1513.5938,114.6406 1514.0156,114.2031 Q1514.2813,113.9375 1514.4219,113.8594 Q1514.5781,113.7813 1514.7813,113.7813 Q1515.1094,113.7813 1515.3594,114.0469 Q1515.625,114.2969 1515.625,114.6406 Q1515.625,114.9844 1515.2813,115.3906 Q1514.7813,115.9688 1513.9844,116.2969 Q1512.9063,116.75 1511.6094,116.75 Q1510.0938,116.75 1508.8906,116.125 Q1507.9063,115.625 1507.2188,114.5625 Q1506.5313,113.4844 1506.5313,112.2031 L1506.5313,111.0469 Q1506.5313,109.7188 1507.1406,108.5781 Q1507.7656,107.4219 1508.8594,106.8125 Q1509.9531,106.1875 1511.1875,106.1875 Q1511.9219,106.1875 1512.5625,106.3594 Q1513.2188,106.5156 1513.7656,106.875 Z " fill="#000000"/><text fill="#000000" font-family="sans-serif" font-size="14" lengthAdjust="spacing" textLength="84" x="1525" y="116.7285">AbstractError</text><line style="stroke:#181818;stroke-width:0.5;" x1="1497" x2="1611" y1="127" y2="127"/><line style="stroke:#181818;stroke-width:0.5;" x1="1497" x2="1611" y1="135" y2="135"/></g><!--class Joueur--><g id="elem_Joueur"><rect codeLine="12" fill="#F1F1F1" height="224.0938" id="Joueur" rx="2.5" ry="2.5" style="stroke:#181818;stroke-width:0.5;" width="453" x="503.5" y="575"/><ellipse cx="704.25" cy="591" fill="#ADD1B2" rx="11" ry="11" style="stroke:#181818;stroke-width:1.0;"/><path d="M707.0156,586.875 Q707.1719,586.6563 707.3594,586.5469 Q707.5469,586.4375 707.7656,586.4375 Q708.1406,586.4375 708.375,586.7031 Q708.6094,586.9531 708.6094,587.5625 L708.6094,589.0156 Q708.6094,589.625 708.375,589.8906 Q708.1406,590.1563 707.7656,590.1563 Q707.4219,590.1563 707.2188,589.9531 Q707.0156,589.7656 706.9063,589.25 Q706.8594,588.8906 706.6719,588.7031 Q706.3438,588.3281 705.7344,588.1094 Q705.125,587.8906 704.5,587.8906 Q703.7344,587.8906 703.0938,588.2188 Q702.4688,588.5469 701.9688,589.2969 Q701.4844,590.0469 701.4844,591.0781 L701.4844,592.1719 Q701.4844,593.4063 702.375,594.2344 Q703.2656,595.0469 704.8594,595.0469 Q705.7969,595.0469 706.4531,594.7969 Q706.8438,594.6406 707.2656,594.2031 Q707.5313,593.9375 707.6719,593.8594 Q707.8281,593.7813 708.0313,593.7813 Q708.3594,593.7813 708.6094,594.0469 Q708.875,594.2969 708.875,594.6406 Q708.875,594.9844 708.5313,595.3906 Q708.0313,595.9688 707.2344,596.2969 Q706.1563,596.75 704.8594,596.75 Q703.3438,596.75 702.1406,596.125 Q701.1563,595.625 700.4688,594.5625 Q699.7813,593.4844 699.7813,592.2031 L699.7813,591.0469 Q699.7813,589.7188 700.3906,588.5781 Q701.0156,587.4219 702.1094,586.8125 Q703.2031,586.1875 704.4375,586.1875 Q705.1719,586.1875 705.8125,586.3594 Q706.4688,586.5156 707.0156,586.875 Z " fill="#000000"/><text fill="#000000" font-family="sans-serif" font-size="14" lengthAdjust="spacing" textLength="43" x="724.75" y="596.7285">Joueur</text><line style="stroke:#181818;stroke-width:0.5;" x1="504.5" x2="955.5" y1="607" y2="607"/><rect fill="none" height="6" style="stroke:#C82930;stroke-width:1.0;" width="6" x="511.5" y="618.3047"/><text fill="#000000" font-family="sans-serif" font-size="14" lengthAdjust="spacing" textLength="78" x="523.5" y="625.5332">_nom: string</text><rect fill="none" height="6" style="stroke:#C82930;stroke-width:1.0;" width="6" x="511.5" y="635.9141"/><text fill="#000000" font-family="sans-serif" font-size="14" lengthAdjust="spacing" textLength="131" x="523.5" y="643.1426">_nbLancers: number</text><rect fill="none" height="6" style="stroke:#C82930;stroke-width:1.0;" width="6" x="511.5" y="653.5234"/><text fill="#000000" font-family="sans-serif" font-size="14" lengthAdjust="spacing" textLength="181" x="523.5" y="660.752">_nbLancersGagnes: number</text><ellipse cx="514.5" cy="674.1328" fill="none" rx="3" ry="3" style="stroke:#038048;stroke-width:1.0;"/><text fill="#000000" font-family="sans-serif" font-size="14" lengthAdjust="spacing" textLength="70" x="523.5" y="678.3613">nom: string</text><ellipse cx="514.5" cy="691.7422" fill="none" rx="3" ry="3" style="stroke:#038048;stroke-width:1.0;"/><text fill="#000000" font-family="sans-serif" font-size="14" lengthAdjust="spacing" textLength="102" x="523.5" y="695.9707">lancers: number</text><ellipse cx="514.5" cy="709.3516" fill="none" rx="3" ry="3" style="stroke:#038048;stroke-width:1.0;"/><text fill="#000000" font-family="sans-serif" font-size="14" lengthAdjust="spacing" textLength="152" x="523.5" y="713.5801">lancersGagnes: number</text><line style="stroke:#181818;stroke-width:0.5;" x1="504.5" x2="955.5" y1="720.6563" y2="720.6563"/><rect fill="#F24D5C" height="6" style="stroke:#C82930;stroke-width:1.0;" width="6" x="511.5" y="731.9609"/><text fill="#000000" font-family="sans-serif" font-size="14" lengthAdjust="spacing" textLength="200" x="523.5" y="739.1895">assainirNom(nom: string): string</text><ellipse cx="514.5" cy="752.5703" fill="#84BE84" rx="3" ry="3" style="stroke:#038048;stroke-width:1.0;"/><text fill="#000000" font-family="sans-serif" font-size="14" lengthAdjust="spacing" textLength="83" x="523.5" y="756.7988">lancer(): void</text><ellipse cx="514.5" cy="770.1797" fill="#84BE84" rx="3" ry="3" style="stroke:#038048;stroke-width:1.0;"/><text fill="#000000" font-family="sans-serif" font-size="14" lengthAdjust="spacing" textLength="89" x="523.5" y="774.4082">gagner(): void</text><ellipse cx="514.5" cy="787.7891" fill="#84BE84" rx="3" ry="3" style="stroke:#038048;stroke-width:1.0;"/><text fill="#000000" font-family="sans-serif" font-size="14" lengthAdjust="spacing" textLength="427" x="523.5" y="792.0176">toJSON(): { nom: string; lancers: number; lancersGagnes: number; }</text></g><!--class NotFoundError--><g id="elem_NotFoundError"><rect codeLine="24" fill="#F1F1F1" height="65.6094" id="NotFoundError" rx="2.5" ry="2.5" style="stroke:#181818;stroke-width:0.5;" width="126" x="1491" y="370"/><ellipse cx="1506" cy="386" fill="#ADD1B2" rx="11" ry="11" style="stroke:#181818;stroke-width:1.0;"/><path d="M1508.7656,381.875 Q1508.9219,381.6563 1509.1094,381.5469 Q1509.2969,381.4375 1509.5156,381.4375 Q1509.8906,381.4375 1510.125,381.7031 Q1510.3594,381.9531 1510.3594,382.5625 L1510.3594,384.0156 Q1510.3594,384.625 1510.125,384.8906 Q1509.8906,385.1563 1509.5156,385.1563 Q1509.1719,385.1563 1508.9688,384.9531 Q1508.7656,384.7656 1508.6563,384.25 Q1508.6094,383.8906 1508.4219,383.7031 Q1508.0938,383.3281 1507.4844,383.1094 Q1506.875,382.8906 1506.25,382.8906 Q1505.4844,382.8906 1504.8438,383.2188 Q1504.2188,383.5469 1503.7188,384.2969 Q1503.2344,385.0469 1503.2344,386.0781 L1503.2344,387.1719 Q1503.2344,388.4063 1504.125,389.2344 Q1505.0156,390.0469 1506.6094,390.0469 Q1507.5469,390.0469 1508.2031,389.7969 Q1508.5938,389.6406 1509.0156,389.2031 Q1509.2813,388.9375 1509.4219,388.8594 Q1509.5781,388.7813 1509.7813,388.7813 Q1510.1094,388.7813 1510.3594,389.0469 Q1510.625,389.2969 1510.625,389.6406 Q1510.625,389.9844 1510.2813,390.3906 Q1509.7813,390.9688 1508.9844,391.2969 Q1507.9063,391.75 1506.6094,391.75 Q1505.0938,391.75 1503.8906,391.125 Q1502.9063,390.625 1502.2188,389.5625 Q1501.5313,388.4844 1501.5313,387.2031 L1501.5313,386.0469 Q1501.5313,384.7188 1502.1406,383.5781 Q1502.7656,382.4219 1503.8594,381.8125 Q1504.9531,381.1875 1506.1875,381.1875 Q1506.9219,381.1875 1507.5625,381.3594 Q1508.2188,381.5156 1508.7656,381.875 Z " fill="#000000"/><text fill="#000000" font-family="sans-serif" font-size="14" lengthAdjust="spacing" textLength="94" x="1520" y="391.7285">NotFoundError</text><line style="stroke:#181818;stroke-width:0.5;" x1="1492" x2="1616" y1="402" y2="402"/><ellipse cx="1502" cy="416.3047" fill="none" rx="3" ry="3" style="stroke:#038048;stroke-width:1.0;"/><text fill="#000000" font-family="sans-serif" font-size="14" lengthAdjust="spacing" textLength="63" x="1511" y="420.5332">code: 404</text><line style="stroke:#181818;stroke-width:0.5;" x1="1492" x2="1616" y1="427.6094" y2="427.6094"/></g><!--class AlreadyExistsError--><g id="elem_AlreadyExistsError"><rect codeLine="27" fill="#F1F1F1" height="65.6094" id="AlreadyExistsError" rx="2.5" ry="2.5" style="stroke:#181818;stroke-width:0.5;" width="148" x="1652" y="370"/><ellipse cx="1667" cy="386" fill="#ADD1B2" rx="11" ry="11" style="stroke:#181818;stroke-width:1.0;"/><path d="M1669.7656,381.875 Q1669.9219,381.6563 1670.1094,381.5469 Q1670.2969,381.4375 1670.5156,381.4375 Q1670.8906,381.4375 1671.125,381.7031 Q1671.3594,381.9531 1671.3594,382.5625 L1671.3594,384.0156 Q1671.3594,384.625 1671.125,384.8906 Q1670.8906,385.1563 1670.5156,385.1563 Q1670.1719,385.1563 1669.9688,384.9531 Q1669.7656,384.7656 1669.6563,384.25 Q1669.6094,383.8906 1669.4219,383.7031 Q1669.0938,383.3281 1668.4844,383.1094 Q1667.875,382.8906 1667.25,382.8906 Q1666.4844,382.8906 1665.8438,383.2188 Q1665.2188,383.5469 1664.7188,384.2969 Q1664.2344,385.0469 1664.2344,386.0781 L1664.2344,387.1719 Q1664.2344,388.4063 1665.125,389.2344 Q1666.0156,390.0469 1667.6094,390.0469 Q1668.5469,390.0469 1669.2031,389.7969 Q1669.5938,389.6406 1670.0156,389.2031 Q1670.2813,388.9375 1670.4219,388.8594 Q1670.5781,388.7813 1670.7813,388.7813 Q1671.1094,388.7813 1671.3594,389.0469 Q1671.625,389.2969 1671.625,389.6406 Q1671.625,389.9844 1671.2813,390.3906 Q1670.7813,390.9688 1669.9844,391.2969 Q1668.9063,391.75 1667.6094,391.75 Q1666.0938,391.75 1664.8906,391.125 Q1663.9063,390.625 1663.2188,389.5625 Q1662.5313,388.4844 1662.5313,387.2031 L1662.5313,386.0469 Q1662.5313,384.7188 1663.1406,383.5781 Q1663.7656,382.4219 1664.8594,381.8125 Q1665.9531,381.1875 1667.1875,381.1875 Q1667.9219,381.1875 1668.5625,381.3594 Q1669.2188,381.5156 1669.7656,381.875 Z " fill="#000000"/><text fill="#000000" font-family="sans-serif" font-size="14" lengthAdjust="spacing" textLength="116" x="1681" y="391.7285">AlreadyExistsError</text><line style="stroke:#181818;stroke-width:0.5;" x1="1653" x2="1799" y1="402" y2="402"/><ellipse cx="1663" cy="416.3047" fill="none" rx="3" ry="3" style="stroke:#038048;stroke-width:1.0;"/><text fill="#000000" font-family="sans-serif" font-size="14" lengthAdjust="spacing" textLength="63" x="1672" y="420.5332">code: 400</text><line style="stroke:#181818;stroke-width:0.5;" x1="1653" x2="1799" y1="427.6094" y2="427.6094"/></g><!--class JeuDeDes--><g id="elem_JeuDeDes"><rect codeLine="30" fill="#F1F1F1" height="224.0938" id="JeuDeDes" rx="2.5" ry="2.5" style="stroke:#181818;stroke-width:0.5;" width="229" x="452.5" y="291"/><ellipse cx="530.25" cy="307" fill="#ADD1B2" rx="11" ry="11" style="stroke:#181818;stroke-width:1.0;"/><path d="M533.0156,302.875 Q533.1719,302.6563 533.3594,302.5469 Q533.5469,302.4375 533.7656,302.4375 Q534.1406,302.4375 534.375,302.7031 Q534.6094,302.9531 534.6094,303.5625 L534.6094,305.0156 Q534.6094,305.625 534.375,305.8906 Q534.1406,306.1563 533.7656,306.1563 Q533.4219,306.1563 533.2188,305.9531 Q533.0156,305.7656 532.9063,305.25 Q532.8594,304.8906 532.6719,304.7031 Q532.3438,304.3281 531.7344,304.1094 Q531.125,303.8906 530.5,303.8906 Q529.7344,303.8906 529.0938,304.2188 Q528.4688,304.5469 527.9688,305.2969 Q527.4844,306.0469 527.4844,307.0781 L527.4844,308.1719 Q527.4844,309.4063 528.375,310.2344 Q529.2656,311.0469 530.8594,311.0469 Q531.7969,311.0469 532.4531,310.7969 Q532.8438,310.6406 533.2656,310.2031 Q533.5313,309.9375 533.6719,309.8594 Q533.8281,309.7813 534.0313,309.7813 Q534.3594,309.7813 534.6094,310.0469 Q534.875,310.2969 534.875,310.6406 Q534.875,310.9844 534.5313,311.3906 Q534.0313,311.9688 533.2344,312.2969 Q532.1563,312.75 530.8594,312.75 Q529.3438,312.75 528.1406,312.125 Q527.1563,311.625 526.4688,310.5625 Q525.7813,309.4844 525.7813,308.2031 L525.7813,307.0469 Q525.7813,305.7188 526.3906,304.5781 Q527.0156,303.4219 528.1094,302.8125 Q529.2031,302.1875 530.4375,302.1875 Q531.1719,302.1875 531.8125,302.3594 Q532.4688,302.5156 533.0156,302.875 Z " fill="#000000"/><text fill="#000000" font-family="sans-serif" font-size="14" lengthAdjust="spacing" textLength="65" x="550.75" y="312.7285">JeuDeDes</text><line style="stroke:#181818;stroke-width:0.5;" x1="453.5" x2="680.5" y1="323" y2="323"/><rect fill="none" height="6" style="stroke:#C82930;stroke-width:1.0;" width="6" x="460.5" y="334.3047"/><text fill="#000000" font-family="sans-serif" font-size="14" lengthAdjust="spacing" textLength="192" x="472.5" y="341.5332">_joueurs: Map&lt;string, Joueur&gt;</text><rect fill="none" height="6" style="stroke:#C82930;stroke-width:1.0;" width="6" x="460.5" y="351.9141"/><text fill="#000000" font-family="sans-serif" font-size="14" lengthAdjust="spacing" textLength="50" x="472.5" y="359.1426">_d1: De</text><rect fill="none" height="6" style="stroke:#C82930;stroke-width:1.0;" width="6" x="460.5" y="369.5234"/><text fill="#000000" font-family="sans-serif" font-size="14" lengthAdjust="spacing" textLength="50" x="472.5" y="376.752">_d2: De</text><rect fill="none" height="6" style="stroke:#C82930;stroke-width:1.0;" width="6" x="460.5" y="387.1328"/><text fill="#000000" font-family="sans-serif" font-size="14" lengthAdjust="spacing" textLength="50" x="472.5" y="394.3613">_d3: De</text><ellipse cx="463.5" cy="407.7422" fill="none" rx="3" ry="3" style="stroke:#038048;stroke-width:1.0;"/><text fill="#000000" font-family="sans-serif" font-size="14" lengthAdjust="spacing" textLength="90" x="472.5" y="411.9707">joueurs: string</text><line style="stroke:#181818;stroke-width:0.5;" x1="453.5" x2="680.5" y1="419.0469" y2="419.0469"/><ellipse cx="463.5" cy="433.3516" fill="#84BE84" rx="3" ry="3" style="stroke:#038048;stroke-width:1.0;"/><text fill="#000000" font-family="sans-serif" font-size="14" lengthAdjust="spacing" textLength="203" x="472.5" y="437.5801">demarrerJeu(nom: string): string</text><ellipse cx="463.5" cy="450.9609" fill="#84BE84" rx="3" ry="3" style="stroke:#038048;stroke-width:1.0;"/><text fill="#000000" font-family="sans-serif" font-size="14" lengthAdjust="spacing" textLength="155" x="472.5" y="455.1895">jouer(nom: string): string</text><ellipse cx="463.5" cy="468.5703" fill="#84BE84" rx="3" ry="3" style="stroke:#038048;stroke-width:1.0;"/><text fill="#000000" font-family="sans-serif" font-size="14" lengthAdjust="spacing" textLength="197" x="472.5" y="472.7988">terminerJeu(nom: string): string</text><ellipse cx="463.5" cy="486.1797" fill="#84BE84" rx="3" ry="3" style="stroke:#038048;stroke-width:1.0;"/><text fill="#000000" font-family="sans-serif" font-size="14" lengthAdjust="spacing" textLength="146" x="472.5" y="490.4082">redemarrerJeu(): string</text><ellipse cx="463.5" cy="503.7891" fill="#84BE84" rx="3" ry="3" style="stroke:#038048;stroke-width:1.0;"/><text fill="#000000" font-family="sans-serif" font-size="14" lengthAdjust="spacing" textLength="114" x="472.5" y="508.0176">brasser(): number</text></g><!--class JeuRouter--><g id="elem_JeuRouter"><rect codeLine="42" fill="#F1F1F1" height="224.0938" id="JeuRouter" rx="2.5" ry="2.5" style="stroke:#181818;stroke-width:0.5;" width="1120" x="7" y="7"/><ellipse cx="530.25" cy="23" fill="#ADD1B2" rx="11" ry="11" style="stroke:#181818;stroke-width:1.0;"/><path d="M533.0156,18.875 Q533.1719,18.6563 533.3594,18.5469 Q533.5469,18.4375 533.7656,18.4375 Q534.1406,18.4375 534.375,18.7031 Q534.6094,18.9531 534.6094,19.5625 L534.6094,21.0156 Q534.6094,21.625 534.375,21.8906 Q534.1406,22.1563 533.7656,22.1563 Q533.4219,22.1563 533.2188,21.9531 Q533.0156,21.7656 532.9063,21.25 Q532.8594,20.8906 532.6719,20.7031 Q532.3438,20.3281 531.7344,20.1094 Q531.125,19.8906 530.5,19.8906 Q529.7344,19.8906 529.0938,20.2188 Q528.4688,20.5469 527.9688,21.2969 Q527.4844,22.0469 527.4844,23.0781 L527.4844,24.1719 Q527.4844,25.4063 528.375,26.2344 Q529.2656,27.0469 530.8594,27.0469 Q531.7969,27.0469 532.4531,26.7969 Q532.8438,26.6406 533.2656,26.2031 Q533.5313,25.9375 533.6719,25.8594 Q533.8281,25.7813 534.0313,25.7813 Q534.3594,25.7813 534.6094,26.0469 Q534.875,26.2969 534.875,26.6406 Q534.875,26.9844 534.5313,27.3906 Q534.0313,27.9688 533.2344,28.2969 Q532.1563,28.75 530.8594,28.75 Q529.3438,28.75 528.1406,28.125 Q527.1563,27.625 526.4688,26.5625 Q525.7813,25.4844 525.7813,24.2031 L525.7813,23.0469 Q525.7813,21.7188 526.3906,20.5781 Q527.0156,19.4219 528.1094,18.8125 Q529.2031,18.1875 530.4375,18.1875 Q531.1719,18.1875 531.8125,18.3594 Q532.4688,18.5156 533.0156,18.875 Z " fill="#000000"/><text fill="#000000" font-family="sans-serif" font-size="14" lengthAdjust="spacing" textLength="65" x="550.75" y="28.7285">JeuRouter</text><line style="stroke:#181818;stroke-width:0.5;" x1="8" x2="1126" y1="39" y2="39"/><rect fill="none" height="6" style="stroke:#C82930;stroke-width:1.0;" width="6" x="15" y="50.3047"/><text fill="#000000" font-family="sans-serif" font-size="14" lengthAdjust="spacing" textLength="97" x="27" y="57.5332">_router: Router</text><rect fill="none" height="6" style="stroke:#C82930;stroke-width:1.0;" width="6" x="15" y="67.9141"/><text fill="#000000" font-family="sans-serif" font-size="14" lengthAdjust="spacing" textLength="167" x="27" y="75.1426">_controleurJeu: JeuDeDes</text><ellipse cx="18" cy="88.5234" fill="none" rx="3" ry="3" style="stroke:#038048;stroke-width:1.0;"/><text fill="#000000" font-family="sans-serif" font-size="14" lengthAdjust="spacing" textLength="159" x="27" y="92.752">controleurJeu: JeuDeDes</text><ellipse cx="18" cy="106.1328" fill="none" rx="3" ry="3" style="stroke:#038048;stroke-width:1.0;"/><text fill="#000000" font-family="sans-serif" font-size="14" lengthAdjust="spacing" textLength="89" x="27" y="110.3613">router: Router</text><line style="stroke:#181818;stroke-width:0.5;" x1="8" x2="1126" y1="117.4375" y2="117.4375"/><ellipse cx="18" cy="131.7422" fill="#84BE84" rx="3" ry="3" style="stroke:#038048;stroke-width:1.0;"/><text fill="#000000" font-family="sans-serif" font-size="14" lengthAdjust="spacing" textLength="1081" x="27" y="135.9707">demarrerJeu(req: Request&lt;ParamsDictionary, any, any, QueryString.ParsedQs, Record&lt;string, any&gt;&gt;, res: Response&lt;any, Record&lt;string, any&gt;&gt;, next: NextFunction): void</text><ellipse cx="18" cy="149.3516" fill="#84BE84" rx="3" ry="3" style="stroke:#038048;stroke-width:1.0;"/><text fill="#000000" font-family="sans-serif" font-size="14" lengthAdjust="spacing" textLength="1033" x="27" y="153.5801">jouer(req: Request&lt;ParamsDictionary, any, any, QueryString.ParsedQs, Record&lt;string, any&gt;&gt;, res: Response&lt;any, Record&lt;string, any&gt;&gt;, next: NextFunction): void</text><rect fill="#F24D5C" height="6" style="stroke:#C82930;stroke-width:1.0;" width="6" x="15" y="163.9609"/><text fill="#000000" font-family="sans-serif" font-size="14" lengthAdjust="spacing" textLength="1044" x="27" y="171.1895">_errorCode500(error: any, req: Request&lt;ParamsDictionary, any, any, QueryString.ParsedQs, Record&lt;string, any&gt;&gt;, res: Response&lt;any, Record&lt;string, any&gt;&gt;): void</text><ellipse cx="18" cy="184.5703" fill="#84BE84" rx="3" ry="3" style="stroke:#038048;stroke-width:1.0;"/><text fill="#000000" font-family="sans-serif" font-size="14" lengthAdjust="spacing" textLength="1075" x="27" y="188.7988">terminerJeu(req: Request&lt;ParamsDictionary, any, any, QueryString.ParsedQs, Record&lt;string, any&gt;&gt;, res: Response&lt;any, Record&lt;string, any&gt;&gt;, next: NextFunction): void</text><ellipse cx="18" cy="202.1797" fill="#84BE84" rx="3" ry="3" style="stroke:#038048;stroke-width:1.0;"/><text fill="#000000" font-family="sans-serif" font-size="14" lengthAdjust="spacing" textLength="1094" x="27" y="206.4082">redemarrerJeu(req: Request&lt;ParamsDictionary, any, any, QueryString.ParsedQs, Record&lt;string, any&gt;&gt;, res: Response&lt;any, Record&lt;string, any&gt;&gt;, next: NextFunction): void</text><ellipse cx="18" cy="219.7891" fill="#84BE84" rx="3" ry="3" style="stroke:#038048;stroke-width:1.0;"/><text fill="#000000" font-family="sans-serif" font-size="14" lengthAdjust="spacing" textLength="62" x="27" y="224.0176">init(): void</text></g><!--class App--><g id="elem_App"><rect codeLine="54" fill="#F1F1F1" height="100.8281" id="App" rx="2.5" ry="2.5" style="stroke:#181818;stroke-width:0.5;" width="230" x="1647" y="68.5"/><ellipse cx="1745.25" cy="84.5" fill="#ADD1B2" rx="11" ry="11" style="stroke:#181818;stroke-width:1.0;"/><path d="M1748.0156,80.375 Q1748.1719,80.1563 1748.3594,80.0469 Q1748.5469,79.9375 1748.7656,79.9375 Q1749.1406,79.9375 1749.375,80.2031 Q1749.6094,80.4531 1749.6094,81.0625 L1749.6094,82.5156 Q1749.6094,83.125 1749.375,83.3906 Q1749.1406,83.6563 1748.7656,83.6563 Q1748.4219,83.6563 1748.2188,83.4531 Q1748.0156,83.2656 1747.9063,82.75 Q1747.8594,82.3906 1747.6719,82.2031 Q1747.3438,81.8281 1746.7344,81.6094 Q1746.125,81.3906 1745.5,81.3906 Q1744.7344,81.3906 1744.0938,81.7188 Q1743.4688,82.0469 1742.9688,82.7969 Q1742.4844,83.5469 1742.4844,84.5781 L1742.4844,85.6719 Q1742.4844,86.9063 1743.375,87.7344 Q1744.2656,88.5469 1745.8594,88.5469 Q1746.7969,88.5469 1747.4531,88.2969 Q1747.8438,88.1406 1748.2656,87.7031 Q1748.5313,87.4375 1748.6719,87.3594 Q1748.8281,87.2813 1749.0313,87.2813 Q1749.3594,87.2813 1749.6094,87.5469 Q1749.875,87.7969 1749.875,88.1406 Q1749.875,88.4844 1749.5313,88.8906 Q1749.0313,89.4688 1748.2344,89.7969 Q1747.1563,90.25 1745.8594,90.25 Q1744.3438,90.25 1743.1406,89.625 Q1742.1563,89.125 1741.4688,88.0625 Q1740.7813,86.9844 1740.7813,85.7031 L1740.7813,84.5469 Q1740.7813,83.2188 1741.3906,82.0781 Q1742.0156,80.9219 1743.1094,80.3125 Q1744.2031,79.6875 1745.4375,79.6875 Q1746.1719,79.6875 1746.8125,79.8594 Q1747.4688,80.0156 1748.0156,80.375 Z " fill="#000000"/><text fill="#000000" font-family="sans-serif" font-size="14" lengthAdjust="spacing" textLength="25" x="1765.75" y="90.2285">App</text><line style="stroke:#181818;stroke-width:0.5;" x1="1648" x2="1876" y1="100.5" y2="100.5"/><ellipse cx="1658" cy="114.8047" fill="none" rx="3" ry="3" style="stroke:#038048;stroke-width:1.0;"/><text fill="#000000" font-family="sans-serif" font-size="14" lengthAdjust="spacing" textLength="204" x="1667" y="119.0332">expressApp: express.Application</text><line style="stroke:#181818;stroke-width:0.5;" x1="1648" x2="1876" y1="126.1094" y2="126.1094"/><rect fill="#F24D5C" height="6" style="stroke:#C82930;stroke-width:1.0;" width="6" x="1655" y="137.4141"/><text fill="#000000" font-family="sans-serif" font-size="14" lengthAdjust="spacing" textLength="115" x="1667" y="144.6426">middleware(): void</text><rect fill="#F24D5C" height="6" style="stroke:#C82930;stroke-width:1.0;" width="6" x="1655" y="155.0234"/><text fill="#000000" font-family="sans-serif" font-size="14" lengthAdjust="spacing" textLength="84" x="1667" y="162.252">routes(): void</text></g><!--reverse link Error to default--><g id="link_Error_default"><path d="M1194,161.08 C1194,211.2 1194,312.1 1194,369.67 " fill="none" id="Error-backto-default" style="stroke:#181818;stroke-width:1.0;"/><polygon fill="none" points="1194,143.08,1188,161.08,1200,161.08,1194,143.08" style="stroke:#181818;stroke-width:1.0;"/></g><!--reverse link AbstractError to InvalidParameterError--><g id="link_AbstractError_InvalidParameterError"><path d="M1529.2225,158.18 C1496.7025,208.3 1429.34,312.1 1391.98,369.67 " fill="none" id="AbstractError-backto-InvalidParameterError" style="stroke:#181818;stroke-width:1.0;"/><polygon fill="none" points="1539.02,143.08,1524.1892,154.9141,1534.2558,161.4458,1539.02,143.08" style="stroke:#181818;stroke-width:1.0;"/></g><!--reverse link AbstractError to NotFoundError--><g id="link_AbstractError_NotFoundError"><path d="M1554,161.08 C1554,211.2 1554,312.1 1554,369.67 " fill="none" id="AbstractError-backto-NotFoundError" style="stroke:#181818;stroke-width:1.0;"/><polygon fill="none" points="1554,143.08,1548,161.08,1560,161.08,1554,143.08" style="stroke:#181818;stroke-width:1.0;"/></g><!--reverse link AbstractError to AlreadyExistsError--><g id="link_AbstractError_AlreadyExistsError"><path d="M1577.4507,158.4485 C1608.0107,208.5685 1671.17,312.1 1706.28,369.67 " fill="none" id="AbstractError-backto-AlreadyExistsError" style="stroke:#181818;stroke-width:1.0;"/><polygon fill="none" points="1568.08,143.08,1572.3279,161.572,1582.5735,155.3249,1568.08,143.08" style="stroke:#181818;stroke-width:1.0;"/></g><!--link JeuDeDes to Joueur--><g id="link_JeuDeDes_Joueur"><path codeLine="59" d="M631.19,515.05 C642.5,534.62 651.2769,549.8156 662.5969,569.3956 " fill="none" id="JeuDeDes-to-Joueur" style="stroke:#181818;stroke-width:1.0;"/><polygon fill="#181818" points="665.6,574.59,664.5583,564.7964,663.0974,570.2614,657.6325,568.8005,665.6,574.59" style="stroke:#181818;stroke-width:1.0;"/><text fill="#000000" font-family="sans-serif" font-size="13" lengthAdjust="spacing" textLength="7" x="654.038" y="564.0037">1</text></g><!--link JeuDeDes to De--><g id="link_JeuDeDes_De"><path codeLine="60" d="M502.81,515.05 C478.58,556.97 455.2128,597.4055 435.8128,630.9655 " fill="none" id="JeuDeDes-to-De" style="stroke:#181818;stroke-width:1.0;"/><polygon fill="#181818" points="432.81,636.16,440.7772,630.3701,435.3123,631.8312,433.8512,626.3663,432.81,636.16" style="stroke:#181818;stroke-width:1.0;"/><text fill="#000000" font-family="sans-serif" font-size="13" lengthAdjust="spacing" textLength="7" x="429.211" y="625.7837">1</text></g><!--link JeuRouter to JeuDeDes--><g id="link_JeuRouter_JeuDeDes"><path codeLine="61" d="M567,231.05 C567,250.62 567,265.01 567,284.59 " fill="none" id="JeuRouter-to-JeuDeDes" style="stroke:#181818;stroke-width:1.0;"/><polygon fill="#181818" points="567,290.59,571,281.59,567,285.59,563,281.59,567,290.59" style="stroke:#181818;stroke-width:1.0;"/><text fill="#000000" font-family="sans-serif" font-size="13" lengthAdjust="spacing" textLength="7" x="559.7648" y="280.0037">1</text></g><!--SRC=[pLLDRnen4BtdLrWv4S56f4ql6uGKbQHgrD9y_838hAV8rQwz6NjJ4EA_TzRUTMs2gDfBuO3mcpVpnZFZeIYvCMm6R7F2w9Czl_8I6ioPQge5e0E72oGIuE0iPwzQ2W_k4BSdV64iyiAomiKKy9qtfMMmig24OJU86ZkPuQOdRrcX1KHHlFDdHU6bkEV8Ax20thaFTTqv9o5zdClnE0Ivqmrb66wcT9KpSfHgsIEBBrmLW2QvReH_uai5gNNu9Wn9SQaapdKrY8nd2MjOxb7gmNqotfIMVDdoTZ2hxvw-pLjimoBrAxOZ681Kx8fjGxtcsjxgHec_AFPbSBuk4RXOtwoaiURVsWND36PWGiD-kFvHgbzvFV7N6dLDdNOKSP7JyFQ7T_7XVJWC1LGS4P0K3dIebSC3TXh3Ige_HK68rNQCqKEAUnqksd6ZYZpgXdH3IT0TS-RX3YoqigZRrqWEUQXZN-S3nZtXac8Xl90HNXemTk8Uevd9magjEAv7ZAl-wu5AjtvosPyJpu1uC2FoB3IAq3fYJgSZXktqFOAfjJ8mSUxxYOe6A6Tp-hvjb5DD9j_twvXJp9wX7VcFDEeVnkE1E-G-c_-PThe_ega-wdQd3-keKwL_0nksT5YGTTtlFbZL96K8oLdt-vmEfInu6ylFJYM5AE4dHqWMVkRUh8d2XxsPPLDsUd7QhSYtEAt3tniba3lMBm00]--></g></svg>