<?xml version="1.0" encoding="us-ascii" standalone="no"?><svg xmlns="http://www.w3.org/2000/svg" xmlns:xlink="http://www.w3.org/1999/xlink" contentStyleType="text/css" height="574px" preserveAspectRatio="none" style="width:694px;height:574px;background:#FFFFFF;" version="1.1" viewBox="0 0 694 574" width="694px" zoomAndPan="magnify"><defs/><g><text fill="#000000" font-family="Verdana" font-size="14" font-weight="bold" lengthAdjust="spacing" textLength="133" x="282.25" y="29.0752">RDCU pour jouer</text><rect fill="none" height="53.5986" style="stroke:#000000;stroke-width:1.5;" width="647" x="41.5" y="425.2378"/><line style="stroke:#181818;stroke-width:0.5;stroke-dasharray:5.0,5.0;" x1="95.5" x2="95.5" y1="92.0439" y2="567.4351"/><line style="stroke:#181818;stroke-width:0.5;stroke-dasharray:5.0,5.0;" x1="239.5" x2="239.5" y1="92.0439" y2="567.4351"/><line style="stroke:#181818;stroke-width:0.5;stroke-dasharray:5.0,5.0;" x1="357.5" x2="357.5" y1="92.0439" y2="567.4351"/><line style="stroke:#181818;stroke-width:0.5;stroke-dasharray:5.0,5.0;" x1="424.5" x2="424.5" y1="92.0439" y2="567.4351"/><line style="stroke:#181818;stroke-width:0.5;stroke-dasharray:5.0,5.0;" x1="491.5" x2="491.5" y1="92.0439" y2="567.4351"/><line style="stroke:#181818;stroke-width:0.5;stroke-dasharray:5.0,5.0;" x1="566.5" x2="566.5" y1="92.0439" y2="567.4351"/><rect fill="#E2E2F0" height="31.0146" rx="2.5" ry="2.5" style="stroke:#181818;stroke-width:0.5;" width="89" x="51.5" y="60.0293"/><text fill="#000000" font-family="Verdana" font-size="14" lengthAdjust="spacing" textLength="75" x="58.5" y="81.1045">:JeuDeDes</text><rect fill="#E2E2F0" height="48.0293" rx="2.5" ry="2.5" style="stroke:#181818;stroke-width:0.5;" width="159" x="160.5" y="43.0146"/><text fill="#000000" font-family="Verdana" font-size="14" lengthAdjust="spacing" textLength="60" x="210" y="64.0898">joueurs:</text><text fill="#000000" font-family="Verdana" font-size="14" lengthAdjust="spacing" textLength="145" x="167.5" y="81.1045">Map&lt;String,Joueur&gt;</text><rect fill="#E2E2F0" height="31.0146" rx="2.5" ry="2.5" style="stroke:#181818;stroke-width:0.5;" width="57" x="329.5" y="60.0293"/><text fill="#000000" font-family="Verdana" font-size="14" lengthAdjust="spacing" textLength="43" x="336.5" y="81.1045">d1:De</text><rect fill="#E2E2F0" height="31.0146" rx="2.5" ry="2.5" style="stroke:#181818;stroke-width:0.5;" width="57" x="396.5" y="60.0293"/><text fill="#000000" font-family="Verdana" font-size="14" lengthAdjust="spacing" textLength="43" x="403.5" y="81.1045">d2:De</text><rect fill="#E2E2F0" height="31.0146" rx="2.5" ry="2.5" style="stroke:#181818;stroke-width:0.5;" width="57" x="463.5" y="60.0293"/><text fill="#000000" font-family="Verdana" font-size="14" lengthAdjust="spacing" textLength="43" x="470.5" y="81.1045">d3:De</text><rect fill="#E2E2F0" height="31.0146" rx="2.5" ry="2.5" style="stroke:#181818;stroke-width:0.5;" width="72" x="530.5" y="60.0293"/><text fill="#000000" font-family="Verdana" font-size="14" lengthAdjust="spacing" textLength="58" x="537.5" y="81.1045">j:Joueur</text><polygon fill="#181818" points="84,122.8433,94,126.8433,84,130.8433" style="stroke:#181818;stroke-width:1.0;"/><line style="stroke:#181818;stroke-width:1.0;" x1="0" x2="90" y1="126.8433" y2="126.8433"/><text fill="#000000" font-family="Verdana" font-size="13" lengthAdjust="spacing" textLength="72" x="7" y="122.1138">jouer(nom)</text><path d="M101,107.0439 L101,132.0439 L229,132.0439 L229,117.0439 L219,107.0439 L101,107.0439 " fill="#FEFFDD" style="stroke:#181818;stroke-width:0.5;"/><path d="M219,107.0439 L219,117.0439 L229,117.0439 L219,107.0439 " fill="#FEFFDD" style="stroke:#181818;stroke-width:0.5;"/><text fill="#000000" font-family="Verdana" font-size="13" lengthAdjust="spacing" textLength="107" x="107" y="125.1138">selon Contr&#244;leur</text><polygon fill="#181818" points="228,158.6426,238,162.6426,228,166.6426" style="stroke:#181818;stroke-width:1.0;"/><line style="stroke:#181818;stroke-width:1.0;" x1="96" x2="234" y1="162.6426" y2="162.6426"/><text fill="#000000" font-family="Verdana" font-size="13" lengthAdjust="spacing" textLength="120" x="103" y="157.9131">j = chercher(nom)</text><path d="M245,142.8433 L245,167.8433 L470,167.8433 L470,152.8433 L460,142.8433 L245,142.8433 " fill="#FEFFDD" style="stroke:#181818;stroke-width:0.5;"/><path d="M460,142.8433 L460,152.8433 L470,152.8433 L460,142.8433 " fill="#FEFFDD" style="stroke:#181818;stroke-width:0.5;"/><text fill="#000000" font-family="Verdana" font-size="13" lengthAdjust="spacing" textLength="204" x="251" y="160.9131">selon Transformer ID en objets</text><polygon fill="#181818" points="346,194.4419,356,198.4419,346,202.4419" style="stroke:#181818;stroke-width:1.0;"/><line style="stroke:#181818;stroke-width:1.0;" x1="96" x2="352" y1="198.4419" y2="198.4419"/><text fill="#000000" font-family="Verdana" font-size="13" lengthAdjust="spacing" textLength="60" x="103" y="193.7124">brasser()</text><path d="M363,178.6426 L363,203.6426 L465,203.6426 L465,188.6426 L455,178.6426 L363,178.6426 " fill="#FEFFDD" style="stroke:#181818;stroke-width:0.5;"/><path d="M455,178.6426 L455,188.6426 L465,188.6426 L455,178.6426 " fill="#FEFFDD" style="stroke:#181818;stroke-width:0.5;"/><text fill="#000000" font-family="Verdana" font-size="13" lengthAdjust="spacing" textLength="81" x="369" y="196.7124">selon Expert</text><polygon fill="#181818" points="346,230.2412,356,234.2412,346,238.2412" style="stroke:#181818;stroke-width:1.0;"/><line style="stroke:#181818;stroke-width:1.0;" x1="96" x2="352" y1="234.2412" y2="234.2412"/><text fill="#000000" font-family="Verdana" font-size="13" lengthAdjust="spacing" textLength="75" x="103" y="229.5117">v1 = valeur</text><path d="M363,214.4419 L363,239.4419 L465,239.4419 L465,224.4419 L455,214.4419 L363,214.4419 " fill="#FEFFDD" style="stroke:#181818;stroke-width:0.5;"/><path d="M455,214.4419 L455,224.4419 L465,224.4419 L455,214.4419 " fill="#FEFFDD" style="stroke:#181818;stroke-width:0.5;"/><text fill="#000000" font-family="Verdana" font-size="13" lengthAdjust="spacing" textLength="81" x="369" y="232.5117">selon Expert</text><polygon fill="#181818" points="413,266.0405,423,270.0405,413,274.0405" style="stroke:#181818;stroke-width:1.0;"/><line style="stroke:#181818;stroke-width:1.0;" x1="96" x2="419" y1="270.0405" y2="270.0405"/><text fill="#000000" font-family="Verdana" font-size="13" lengthAdjust="spacing" textLength="60" x="103" y="265.311">brasser()</text><path d="M430,250.2412 L430,275.2412 L532,275.2412 L532,260.2412 L522,250.2412 L430,250.2412 " fill="#FEFFDD" style="stroke:#181818;stroke-width:0.5;"/><path d="M522,250.2412 L522,260.2412 L532,260.2412 L522,250.2412 " fill="#FEFFDD" style="stroke:#181818;stroke-width:0.5;"/><text fill="#000000" font-family="Verdana" font-size="13" lengthAdjust="spacing" textLength="81" x="436" y="268.311">selon Expert</text><polygon fill="#181818" points="413,301.8398,423,305.8398,413,309.8398" style="stroke:#181818;stroke-width:1.0;"/><line style="stroke:#181818;stroke-width:1.0;" x1="96" x2="419" y1="305.8398" y2="305.8398"/><text fill="#000000" font-family="Verdana" font-size="13" lengthAdjust="spacing" textLength="75" x="103" y="301.1104">v2 = valeur</text><path d="M430,286.0405 L430,311.0405 L532,311.0405 L532,296.0405 L522,286.0405 L430,286.0405 " fill="#FEFFDD" style="stroke:#181818;stroke-width:0.5;"/><path d="M522,286.0405 L522,296.0405 L532,296.0405 L522,286.0405 " fill="#FEFFDD" style="stroke:#181818;stroke-width:0.5;"/><text fill="#000000" font-family="Verdana" font-size="13" lengthAdjust="spacing" textLength="81" x="436" y="304.1104">selon Expert</text><polygon fill="#181818" points="480,334.6392,490,338.6392,480,342.6392" style="stroke:#181818;stroke-width:1.0;"/><line style="stroke:#181818;stroke-width:1.0;" x1="96" x2="486" y1="338.6392" y2="338.6392"/><text fill="#000000" font-family="Verdana" font-size="13" lengthAdjust="spacing" textLength="60" x="103" y="333.9097">brasser()</text><polygon fill="#181818" points="480,367.4385,490,371.4385,480,375.4385" style="stroke:#181818;stroke-width:1.0;"/><line style="stroke:#181818;stroke-width:1.0;" x1="96" x2="486" y1="371.4385" y2="371.4385"/><text fill="#000000" font-family="Verdana" font-size="13" lengthAdjust="spacing" textLength="75" x="103" y="366.709">v3 = valeur</text><path d="M497,351.6392 L497,376.6392 L599,376.6392 L599,361.6392 L589,351.6392 L497,351.6392 " fill="#FEFFDD" style="stroke:#181818;stroke-width:0.5;"/><path d="M589,351.6392 L589,361.6392 L599,361.6392 L589,351.6392 " fill="#FEFFDD" style="stroke:#181818;stroke-width:0.5;"/><text fill="#000000" font-family="Verdana" font-size="13" lengthAdjust="spacing" textLength="81" x="503" y="369.709">selon Expert</text><polygon fill="#181818" points="554.5,403.2378,564.5,407.2378,554.5,411.2378" style="stroke:#181818;stroke-width:1.0;"/><line style="stroke:#181818;stroke-width:1.0;" x1="96" x2="560.5" y1="407.2378" y2="407.2378"/><text fill="#000000" font-family="Verdana" font-size="13" lengthAdjust="spacing" textLength="93" x="103" y="402.5083">incNbParties()</text><path d="M571,387.4385 L571,412.4385 L673,412.4385 L673,397.4385 L663,387.4385 L571,387.4385 " fill="#FEFFDD" style="stroke:#181818;stroke-width:0.5;"/><path d="M663,387.4385 L663,397.4385 L673,397.4385 L663,387.4385 " fill="#FEFFDD" style="stroke:#181818;stroke-width:0.5;"/><text fill="#000000" font-family="Verdana" font-size="13" lengthAdjust="spacing" textLength="81" x="577" y="405.5083">selon Expert</text><path d="M41.5,425.2378 L110.5,425.2378 L110.5,433.0371 L100.5,443.0371 L41.5,443.0371 L41.5,425.2378 " fill="#EEEEEE" style="stroke:#000000;stroke-width:1.5;"/><rect fill="none" height="53.5986" style="stroke:#000000;stroke-width:1.5;" width="647" x="41.5" y="425.2378"/><text fill="#000000" font-family="Verdana" font-size="13" font-weight="bold" lengthAdjust="spacing" textLength="24" x="56.5" y="439.3076">opt</text><text fill="#000000" font-family="Verdana" font-size="11" font-weight="bold" lengthAdjust="spacing" textLength="136" x="125.5" y="438.2969">[v1 + v2 + v3 &lt;= 10]</text><polygon fill="#181818" points="554.5,463.8364,564.5,467.8364,554.5,471.8364" style="stroke:#181818;stroke-width:1.0;"/><line style="stroke:#181818;stroke-width:1.0;" x1="96" x2="560.5" y1="467.8364" y2="467.8364"/><text fill="#000000" font-family="Verdana" font-size="13" lengthAdjust="spacing" textLength="149" x="103" y="463.1069">incNbPartiesGagnees()</text><path d="M571,448.0371 L571,473.0371 L673,473.0371 L673,458.0371 L663,448.0371 L571,448.0371 " fill="#FEFFDD" style="stroke:#181818;stroke-width:0.5;"/><path d="M663,448.0371 L663,458.0371 L673,458.0371 L663,448.0371 " fill="#FEFFDD" style="stroke:#181818;stroke-width:0.5;"/><text fill="#000000" font-family="Verdana" font-size="13" lengthAdjust="spacing" textLength="81" x="577" y="466.1069">selon Expert</text><polygon fill="#181818" points="554.5,506.6357,564.5,510.6357,554.5,514.6357" style="stroke:#181818;stroke-width:1.0;"/><line style="stroke:#181818;stroke-width:1.0;" x1="96" x2="560.5" y1="510.6357" y2="510.6357"/><text fill="#000000" font-family="Verdana" font-size="13" lengthAdjust="spacing" textLength="88" x="103" y="505.9063">p = nbParties</text><path d="M571,490.8364 L571,515.8364 L673,515.8364 L673,500.8364 L663,490.8364 L571,490.8364 " fill="#FEFFDD" style="stroke:#181818;stroke-width:0.5;"/><path d="M663,490.8364 L663,500.8364 L673,500.8364 L663,490.8364 " fill="#FEFFDD" style="stroke:#181818;stroke-width:0.5;"/><text fill="#000000" font-family="Verdana" font-size="13" lengthAdjust="spacing" textLength="81" x="577" y="508.9063">selon Expert</text><polygon fill="#181818" points="554.5,542.4351,564.5,546.4351,554.5,550.4351" style="stroke:#181818;stroke-width:1.0;"/><line style="stroke:#181818;stroke-width:1.0;" x1="96" x2="560.5" y1="546.4351" y2="546.4351"/><text fill="#000000" font-family="Verdana" font-size="13" lengthAdjust="spacing" textLength="144" x="103" y="541.7056">g = nbPartiesGagnees</text><path d="M571,526.6357 L571,551.6357 L673,551.6357 L673,536.6357 L663,526.6357 L571,526.6357 " fill="#FEFFDD" style="stroke:#181818;stroke-width:0.5;"/><path d="M663,526.6357 L663,536.6357 L673,536.6357 L663,526.6357 " fill="#FEFFDD" style="stroke:#181818;stroke-width:0.5;"/><text fill="#000000" font-family="Verdana" font-size="13" lengthAdjust="spacing" textLength="81" x="577" y="544.7056">selon Expert</text><!--SRC=[bL6zJiCm4Dxz5ATEe5A995lKTcaGeX88yJUnkCarTOZFbkr4y5wy0I-6dTA8LcqfWptSztksVHEakU4IhFkeqTz6vAwHDRCzKk2IDxLRAdB49S8Bce8JPquuhtZ8Pi-WLMEWKWqQvZLEv49pSZ18vzXacA4T0BUGRuE1tnYRlj8jr-D7dqpbnRmRJZj-9RS5HPHcs255j8F4FHBl84cF93lnwJfh7SL6qnpIzGvdfEGv8-KGZ2XNpiyjrefWvf_0V7tMNiNoqRIIGG4Jo5TemZaeV3ASx58PYGPkCa02jQZGsU1IH9wsCDnQRx1NVVMkqRYUsqO-ikLTY-Fi-1_EWTl6fpedMywRIPkSgA_yJ51-jxWFFuBsQ3kbNTXv6EeDGyPu0j4b0zXZTCrBmiuFuB0ZKW7UTTD4-zQqSVYxUFcR_XDuMFKD]--></g></svg>